<svg xmlns="http://www.w3.org/2000/svg" width="48.628" height="48.624" viewBox="0 0 48.628 48.624">
  <g id="Group_175" data-name="Group 175" transform="translate(-280.309 -275.487)">
    <path id="Path_109" data-name="Path 109" d="M317.928,324.111H287.4a7.1,7.1,0,0,1-7.089-7.087v-30.53a7.1,7.1,0,0,1,7.087-7.088h15.813a2,2,0,0,1,0,4H287.4a3.093,3.093,0,0,0-3.088,3.088v30.529a3.093,3.093,0,0,0,3.089,3.088h30.53a3.092,3.092,0,0,0,3.088-3.088V301.214a2,2,0,0,1,4,0v15.809A7.1,7.1,0,0,1,317.928,324.111Z" fill="#55cfa7"/>
    <path id="Path_110" data-name="Path 110" d="M299.767,306.653a2,2,0,0,1-1.94-2.485l1.925-7.7a1.994,1.994,0,0,1,.527-.928l18.269-18.27a6.085,6.085,0,1,1,8.606,8.605l-18.273,18.266a2,2,0,0,1-.929.526l-7.7,1.926A1.952,1.952,0,0,1,299.767,306.653Zm3.732-8.677-.982,3.928,3.927-.983,17.882-17.875a2.082,2.082,0,0,0,0-2.948,2.135,2.135,0,0,0-2.949,0Z" fill="#55cfa7"/>
    <rect id="Rectangle_179" data-name="Rectangle 179" width="4" height="7.632" transform="translate(316.314 282.71) rotate(-45)" fill="#55cfa7"/>
  </g>
</svg>
