<svg xmlns="http://www.w3.org/2000/svg" width="18.927" height="18.948" viewBox="0 0 18.927 18.948">
  <path id="dribbble" d="M12.91,18.29l.047-.017C22.6,14.443,19.931,0,9.473,0A9.469,9.469,0,1,0,12.91,18.29ZM4.169,15.834a12.2,12.2,0,0,1,6.564-5.42,19.951,19.951,0,0,1,1.375,6.911,8.236,8.236,0,0,1-7.939-1.491Zm9.1,1a21.254,21.254,0,0,0-1.35-6.684,10.729,10.729,0,0,1,5.7.779A8.307,8.307,0,0,1,13.272,16.831ZM17.749,9.7a11.486,11.486,0,0,0-6.283-.658c-.28-.632-.575-1.239-.886-1.8a15.789,15.789,0,0,0,5.16-3.181A8.182,8.182,0,0,1,17.749,9.7ZM14.9,3.222A15.2,15.2,0,0,1,9.958,6.2a22.152,22.152,0,0,0-3.63-4.391A8.24,8.24,0,0,1,14.9,3.222ZM5.2,2.386a20.838,20.838,0,0,1,3.59,4.229A26.063,26.063,0,0,1,1.359,7.779,8.3,8.3,0,0,1,5.2,2.386ZM1.209,8.967a27.258,27.258,0,0,0,8.217-1.3c.3.52.579,1.087.849,1.676a13.767,13.767,0,0,0-6.968,5.651,8.181,8.181,0,0,1-2.1-6.026Z" fill="#fff"/>
</svg>
