<svg xmlns="http://www.w3.org/2000/svg" width="15.901" height="15.919" viewBox="0 0 15.901 15.919">
  <path id="dribbble-menu" d="M10.846,15.366l.039-.014C18.986,12.134,16.745,0,7.958,0a7.955,7.955,0,1,0,2.888,15.366ZM3.5,13.3A10.252,10.252,0,0,1,9.017,8.75a16.762,16.762,0,0,1,1.155,5.806A6.919,6.919,0,0,1,3.5,13.3Zm7.648.838a17.857,17.857,0,0,0-1.134-5.615,9.014,9.014,0,0,1,4.792.655A6.979,6.979,0,0,1,11.15,14.141Zm3.762-5.989A9.65,9.65,0,0,0,9.634,7.6c-.235-.531-.483-1.041-.745-1.51a13.265,13.265,0,0,0,4.335-2.673A6.874,6.874,0,0,1,14.912,8.151ZM12.518,2.707a12.766,12.766,0,0,1-4.152,2.5A18.611,18.611,0,0,0,5.317,1.519,6.922,6.922,0,0,1,12.518,2.707ZM4.366,2A17.507,17.507,0,0,1,7.382,5.558a21.9,21.9,0,0,1-6.24.978A6.977,6.977,0,0,1,4.366,2ZM1.016,7.534a22.9,22.9,0,0,0,6.9-1.093c.249.437.486.913.714,1.408A11.566,11.566,0,0,0,2.779,12.6,6.873,6.873,0,0,1,1.016,7.534Z" fill="#e95e2a"/>
</svg>
