<svg xmlns="http://www.w3.org/2000/svg" width="19.793" height="18.969" viewBox="0 0 19.793 18.969">
  <path id="logo" d="M9.9.5A9.811,9.811,0,0,0,0,10.225a9.741,9.741,0,0,0,6.767,9.227c.495.092.676-.209.676-.468,0-.231-.008-.843-.012-1.654-2.753.586-3.333-1.3-3.333-1.3A2.592,2.592,0,0,0,3,14.6c-.9-.6.069-.59.069-.59a2.07,2.07,0,0,1,1.516,1,2.131,2.131,0,0,0,2.882.809,2.059,2.059,0,0,1,.627-1.3c-2.2-.243-4.508-1.08-4.508-4.806A3.716,3.716,0,0,1,4.6,7.108a3.4,3.4,0,0,1,.087-2.574s.829-.261,2.722,1a9.489,9.489,0,0,1,4.948,0c1.88-1.258,2.709-1,2.709-1a3.5,3.5,0,0,1,.1,2.574A3.731,3.731,0,0,1,16.18,9.718c0,3.736-2.313,4.558-4.515,4.8a2.308,2.308,0,0,1,.668,1.8c0,1.3-.012,2.347-.012,2.663,0,.255.173.559.68.462a9.712,9.712,0,0,0,6.792-9.215A9.812,9.812,0,0,0,9.9.5Z" transform="translate(0 -0.5)" fill="#fff"/>
</svg>
