<svg xmlns="http://www.w3.org/2000/svg" width="16.47" height="15.784" viewBox="0 0 16.47 15.784">
  <path id="github-menu" d="M8.235.5A8.164,8.164,0,0,0,0,8.592,8.106,8.106,0,0,0,5.631,16.27c.412.076.563-.174.563-.389,0-.192-.007-.7-.01-1.376-2.291.488-2.774-1.086-2.774-1.086a2.157,2.157,0,0,0-.916-1.184c-.746-.5.058-.491.058-.491a1.723,1.723,0,0,1,1.261.834,1.773,1.773,0,0,0,2.4.673,1.713,1.713,0,0,1,.522-1.082c-1.829-.2-3.751-.9-3.751-4A3.092,3.092,0,0,1,3.829,6,2.831,2.831,0,0,1,3.9,3.857s.69-.217,2.265.83a7.9,7.9,0,0,1,4.118,0c1.565-1.047,2.254-.83,2.254-.83A2.91,2.91,0,0,1,12.62,6a3.1,3.1,0,0,1,.844,2.171c0,3.109-1.925,3.793-3.757,3.992a1.92,1.92,0,0,1,.556,1.5c0,1.083-.01,1.953-.01,2.216,0,.212.144.465.566.384A8.081,8.081,0,0,0,16.47,8.592,8.165,8.165,0,0,0,8.235.5Z" transform="translate(0 -0.5)" fill="#e95e2a"/>
</svg>
