<svg xmlns="http://www.w3.org/2000/svg" width="49.009" height="43.385" viewBox="0 0 49.009 43.385">
  <g id="Group_174" data-name="Group 174" transform="translate(-523.308 -278.483)">
    <g id="Group_174-2" data-name="Group 174-2">
      <path id="Path_106" data-name="Path 106" d="M566.212,321.868h-36.9a6.007,6.007,0,0,1-6-6V284.483a6.007,6.007,0,0,1,6-6h36.9a6.007,6.007,0,0,1,6,6v31.385A6.007,6.007,0,0,1,566.212,321.868Zm-36.9-39.385a2,2,0,0,0-2,2v31.385a2,2,0,0,0,2,2h36.9a2,2,0,0,0,2-2V284.483a2,2,0,0,0-2-2Z" fill="#ff8d0f"/>
    </g>
    <path id="Path_107" data-name="Path 107" d="M570.314,312a1.985,1.985,0,0,1-1.178-.386l-7.259-5.307-7.259,5.307a2,2,0,0,1-2.428-.051L538.1,300.32l-11.395,11.108a2,2,0,0,1-2.793-2.865l12.658-12.339a2,2,0,0,1,2.644-.132l14.276,11.387,7.206-5.268a2,2,0,0,1,2.362,0l8.439,6.17A2,2,0,0,1,570.314,312Z" fill="#ff8d0f"/>
    <path id="Path_108" data-name="Path 108" d="M557.837,298.7a7.02,7.02,0,1,1,7.02-7.02A7.028,7.028,0,0,1,557.837,298.7Zm0-10.04a3.02,3.02,0,1,0,3.02,3.02A3.024,3.024,0,0,0,557.837,288.662Z" fill="#ff8d0f"/>
  </g>
</svg>
