<svg xmlns="http://www.w3.org/2000/svg" width="17.855" height="17.674" viewBox="0 0 17.855 17.674">
  <g id="instagram" opacity="0.998">
    <path id="Path_17" data-name="Path 17" d="M18.259,5.2a6.4,6.4,0,0,0-.415-2.144,4.309,4.309,0,0,0-1.033-1.567A4.4,4.4,0,0,0,15.231.466,6.6,6.6,0,0,0,13.064.055C12.108.01,11.8,0,9.38,0S6.652.01,5.7.052A6.587,6.587,0,0,0,3.533.463,4.362,4.362,0,0,0,1.949,1.485,4.347,4.347,0,0,0,.92,3.049,6.417,6.417,0,0,0,.505,5.193C.46,6.139.449,6.439.449,8.839s.01,2.7.052,3.642a6.4,6.4,0,0,0,.415,2.144,4.354,4.354,0,0,0,1.033,1.567,4.4,4.4,0,0,0,1.58,1.019,6.6,6.6,0,0,0,2.167.411c.952.042,1.256.052,3.681.052s2.728-.01,3.681-.052a6.584,6.584,0,0,0,2.166-.411,4.545,4.545,0,0,0,2.613-2.586,6.421,6.421,0,0,0,.415-2.144c.042-.943.052-1.243.052-3.642S18.3,6.139,18.259,5.2Zm-1.608,7.216a4.8,4.8,0,0,1-.307,1.64,2.947,2.947,0,0,1-1.7,1.678,4.957,4.957,0,0,1-1.657.3c-.942.042-1.224.052-3.607.052s-2.669-.01-3.607-.052a4.937,4.937,0,0,1-1.657-.3,2.751,2.751,0,0,1-1.026-.659,2.745,2.745,0,0,1-.666-1.015,4.818,4.818,0,0,1-.307-1.64c-.042-.932-.052-1.212-.052-3.57s.01-2.641.052-3.57a4.8,4.8,0,0,1,.307-1.64A2.684,2.684,0,0,1,3.1,2.62a2.775,2.775,0,0,1,1.026-.659,4.96,4.96,0,0,1,1.657-.3C6.722,1.616,7,1.605,9.387,1.605s2.669.01,3.607.052a4.94,4.94,0,0,1,1.657.3,2.749,2.749,0,0,1,1.026.659,2.744,2.744,0,0,1,.666,1.015,4.82,4.82,0,0,1,.307,1.64c.042.932.052,1.212.052,3.57S16.693,11.48,16.651,12.412Zm0,0" transform="translate(-0.449 0)" fill="#fff"/>
    <path id="Path_18" data-name="Path 18" d="M129.582,124.5a4.541,4.541,0,1,0,4.633,4.54A4.588,4.588,0,0,0,129.582,124.5Zm0,7.485a2.946,2.946,0,1,1,3.005-2.945A2.976,2.976,0,0,1,129.582,131.985Zm0,0" transform="translate(-120.651 -120.202)" fill="#fff"/>
    <path id="Path_19" data-name="Path 19" d="M364.569,89.662a1.06,1.06,0,1,1-1.06-1.06A1.06,1.06,0,0,1,364.569,89.662Zm0,0" transform="translate(-349.802 -85.543)" fill="#fff"/>
  </g>
</svg>
