<svg id="instagram" xmlns="http://www.w3.org/2000/svg" width="17.17" height="16.996" viewBox="0 0 17.17 16.996">
  <path id="Path_17" data-name="Path 17" d="M17.576,5a6.154,6.154,0,0,0-.4-2.062,4.144,4.144,0,0,0-.993-1.507,4.231,4.231,0,0,0-1.52-.979,6.349,6.349,0,0,0-2.083-.4C11.661.01,11.369,0,9.038,0S6.414.01,5.5.05a6.334,6.334,0,0,0-2.083.4,4.2,4.2,0,0,0-1.523.983,4.18,4.18,0,0,0-.99,1.5A6.171,6.171,0,0,0,.5,4.993C.459,5.9.449,6.192.449,8.5S.459,11.1.5,12a6.154,6.154,0,0,0,.4,2.062,4.187,4.187,0,0,0,.993,1.507,4.231,4.231,0,0,0,1.52.979,6.35,6.35,0,0,0,2.083.4c.916.04,1.208.05,3.539.05s2.623-.01,3.539-.05a6.331,6.331,0,0,0,2.083-.4,4.37,4.37,0,0,0,2.513-2.487,6.175,6.175,0,0,0,.4-2.062c.04-.906.05-1.2.05-3.5S17.616,5.9,17.576,5Zm-1.546,6.939a4.616,4.616,0,0,1-.3,1.577,2.834,2.834,0,0,1-1.63,1.614,4.767,4.767,0,0,1-1.594.292c-.906.04-1.177.05-3.469.05s-2.566-.01-3.469-.05a4.748,4.748,0,0,1-1.594-.292,2.645,2.645,0,0,1-.986-.634,2.64,2.64,0,0,1-.641-.976,4.633,4.633,0,0,1-.3-1.577c-.04-.9-.05-1.165-.05-3.433s.01-2.54.05-3.433a4.614,4.614,0,0,1,.3-1.577A2.581,2.581,0,0,1,3,2.52a2.669,2.669,0,0,1,.986-.634,4.77,4.77,0,0,1,1.594-.292c.906-.04,1.178-.05,3.469-.05s2.566.01,3.469.05a4.75,4.75,0,0,1,1.594.292,2.644,2.644,0,0,1,.986.634,2.639,2.639,0,0,1,.641.976,4.635,4.635,0,0,1,.3,1.577c.04.9.05,1.165.05,3.433S16.069,11.039,16.029,11.936Zm0,0" transform="translate(-0.449 0)" fill="#e95e2a"/>
  <path id="Path_18" data-name="Path 18" d="M129.4,124.5a4.367,4.367,0,1,0,4.455,4.366A4.412,4.412,0,0,0,129.4,124.5Zm0,7.2a2.833,2.833,0,1,1,2.89-2.832A2.862,2.862,0,0,1,129.4,131.7Zm0,0" transform="translate(-120.816 -120.366)" fill="#e95e2a"/>
  <path id="Path_19" data-name="Path 19" d="M364.488,89.621a1.019,1.019,0,1,1-1.019-1.019A1.019,1.019,0,0,1,364.488,89.621Zm0,0" transform="translate(-350.288 -85.66)" fill="#e95e2a"/>
</svg>
