<svg id="linkedin" xmlns="http://www.w3.org/2000/svg" width="17.171" height="17.171" viewBox="0 0 17.171 17.171">
  <path id="Path_20" data-name="Path 20" d="M19.582,19.326h0v-6.3c0-3.081-.663-5.454-4.265-5.454a3.739,3.739,0,0,0-3.368,1.851H11.9V7.862H8.489V19.326h3.556V13.649c0-1.495.283-2.94,2.134-2.94,1.824,0,1.851,1.706,1.851,3.036v5.581Z" transform="translate(-2.415 -2.155)" fill="#fff"/>
  <path id="Path_21" data-name="Path 21" d="M.4,7.977h3.56V19.441H.4Z" transform="translate(-0.113 -2.27)" fill="#fff"/>
  <path id="Path_22" data-name="Path 22" d="M2.062,0A2.072,2.072,0,1,0,4.124,2.062,2.063,2.063,0,0,0,2.062,0Z" fill="#fff"/>
</svg>
