<svg id="linkedin-menu" xmlns="http://www.w3.org/2000/svg" width="13.197" height="13.197" viewBox="0 0 13.197 13.197">
  <path id="Path_20" data-name="Path 20" d="M17.015,16.606h0v-4.84c0-2.368-.51-4.192-3.278-4.192A2.874,2.874,0,0,0,11.152,9h-.038V7.8H8.489v8.811h2.733V12.243c0-1.149.218-2.259,1.64-2.259,1.4,0,1.423,1.311,1.423,2.333v4.29Z" transform="translate(-3.821 -3.409)" fill="#e95e2a"/>
  <path id="Path_21" data-name="Path 21" d="M.4,7.977H3.132v8.811H.4Z" transform="translate(-0.178 -3.591)" fill="#e95e2a"/>
  <path id="Path_22" data-name="Path 22" d="M1.585,0A1.592,1.592,0,1,0,3.169,1.585,1.585,1.585,0,0,0,1.585,0Z" fill="#e95e2a"/>
</svg>
