<?xml version="1.0" encoding="utf-8"?>
<!-- Generator: Adobe Illustrator 25.0.1, SVG Export Plug-In . SVG Version: 6.00 Build 0)  -->
<svg version="1.1" id="Layer_1" xmlns="http://www.w3.org/2000/svg" xmlns:xlink="http://www.w3.org/1999/xlink" x="0px" y="0px"
	 viewBox="0 0 454.08 95.36" style="enable-background:new 0 0 454.08 95.36;" xml:space="preserve">
<style type="text/css">
	.st0{enable-background:new    ;}
	.st1{fill:#214B44;}
	.st2{fill:#E85E29;}
</style>
<g>
	<g class="st0">
		<path class="st1" d="M71.21,56.06l21.99,5.59C88.15,82.2,69.58,95.36,48.13,95.36C21.81,95.36,0,76.07,0,47.77S21.81,0,48.13,0
			C69.04,0,87.25,12.98,93.2,33.17L70.3,39.66c-3.25-12.62-11.72-17.85-22.17-17.85c-14.96,0-25.06,10.64-25.06,25.96
			c0,15.5,10.09,25.78,25.06,25.78C58.59,73.55,67.06,68.5,71.21,56.06z"/>
		<path class="st1" d="M201.72,92.66h-23.79v-7.03c-7.57,6.13-17.49,9.73-29.74,9.73c-22.89,0-44.17-19.29-44.17-47.59
			S125.28,0,148.18,0c12.26,0,22.17,3.6,29.74,9.91V2.7h23.79V92.66z M177.92,47.77c0-16.58-12.8-27.04-25.6-27.04
			c-14.42,0-25.24,10.46-25.24,27.04c0,16.58,10.82,26.86,25.24,26.86C165.12,74.63,177.92,64.36,177.92,47.77z"/>
		<path class="st1" d="M278.87,92.66h-25.24L216.13,2.52h25.6l24.52,61.11l24.52-61.11h25.6L278.87,92.66z"/>
		<path class="st1" d="M412.98,54.08h-68.5c2.34,12.98,11.54,20.91,22.53,20.91c7.03,0,15.86-0.9,22.35-11.9l21.27,4.51
			c-7.93,18.75-23.98,27.76-43.63,27.76c-25.42,0-46.15-19.29-46.15-47.59S341.6,0,367.37,0c23.98,0,44.71,18.57,45.61,45.97V54.08z
			 M345.2,37.31h43.44c-3.06-11.54-11.72-16.58-21.27-16.58C358.36,20.73,348.08,26.14,345.2,37.31z"/>
	</g>
	<g class="st0">
		<path class="st2" d="M454.08,79.68c0,7.75-5.95,13.7-14.24,13.7c-8.29,0-14.24-5.95-14.24-13.7c0-7.39,5.95-13.88,14.24-13.88
			C448.13,65.8,454.08,72.29,454.08,79.68z"/>
	</g>
</g>
<g>
</g>
<g>
</g>
<g>
</g>
<g>
</g>
<g>
</g>
<g>
</g>
</svg>
